<svg width="110" height="110" viewBox="0 0 110 110" fill="none" xmlns="http://www.w3.org/2000/svg">
<g filter="url(#filter0_d)">
<rect x="2" y="2" width="100" height="100" rx="20" fill="#357DF6"/>
</g>
<g filter="url(#filter1_i)">
<path d="M37.7578 26.8926H50.9854C54.4261 26.8926 57.377 27.2116 59.8379 27.8496C62.2988 28.4876 64.5319 29.6839 66.5371 31.4385C71.7552 35.9046 74.3643 42.695 74.3643 51.8096C74.3643 54.8174 74.1022 57.5632 73.5781 60.0469C73.054 62.5306 72.2451 64.7751 71.1514 66.7803C70.0576 68.7627 68.6562 70.54 66.9473 72.1123C65.6029 73.32 64.1331 74.2884 62.5381 75.0176C60.943 75.7467 59.2227 76.2594 57.377 76.5557C55.554 76.8519 53.4919 77 51.1904 77H37.9629C36.1172 77 34.7272 76.7266 33.793 76.1797C32.8587 75.61 32.2435 74.8239 31.9473 73.8213C31.6738 72.7959 31.5371 71.4743 31.5371 69.8564V33.1133C31.5371 30.9258 32.027 29.3421 33.0068 28.3623C33.9867 27.3825 35.5703 26.8926 37.7578 26.8926ZM41.6885 34.9248V68.9336H49.3789C51.0651 68.9336 52.3867 68.888 53.3438 68.7969C54.3008 68.7057 55.292 68.4779 56.3174 68.1133C57.3428 67.7487 58.2314 67.236 58.9834 66.5752C62.3786 63.7041 64.0762 58.7594 64.0762 51.7412C64.0762 46.7965 63.3242 43.0938 61.8203 40.6328C60.3392 38.1719 58.5049 36.611 56.3174 35.9502C54.1299 35.2666 51.4867 34.9248 48.3877 34.9248H41.6885Z" fill="white"/>
</g>
<defs>
<filter id="filter0_d" x="0" y="0" width="110" height="110" filterUnits="userSpaceOnUse" color-interpolation-filters="sRGB">
<feFlood flood-opacity="0" result="BackgroundImageFix"/>
<feColorMatrix in="SourceAlpha" type="matrix" values="0 0 0 0 0 0 0 0 0 0 0 0 0 0 0 0 0 0 127 0"/>
<feOffset dx="3" dy="3"/>
<feGaussianBlur stdDeviation="2.5"/>
<feColorMatrix type="matrix" values="0 0 0 0 0 0 0 0 0 0 0 0 0 0 0 0 0 0 0.2 0"/>
<feBlend mode="normal" in2="BackgroundImageFix" result="effect1_dropShadow"/>
<feBlend mode="normal" in="SourceGraphic" in2="effect1_dropShadow" result="shape"/>
</filter>
<filter id="filter1_i" x="31.5371" y="26.8926" width="45.8271" height="53.1074" filterUnits="userSpaceOnUse" color-interpolation-filters="sRGB">
<feFlood flood-opacity="0" result="BackgroundImageFix"/>
<feBlend mode="normal" in="SourceGraphic" in2="BackgroundImageFix" result="shape"/>
<feColorMatrix in="SourceAlpha" type="matrix" values="0 0 0 0 0 0 0 0 0 0 0 0 0 0 0 0 0 0 127 0" result="hardAlpha"/>
<feOffset dx="3" dy="3"/>
<feGaussianBlur stdDeviation="2.5"/>
<feComposite in2="hardAlpha" operator="arithmetic" k2="-1" k3="1"/>
<feColorMatrix type="matrix" values="0 0 0 0 0 0 0 0 0 0 0 0 0 0 0 0 0 0 0.2 0"/>
<feBlend mode="normal" in2="shape" result="effect1_innerShadow"/>
</filter>
</defs>
</svg>
